<svg xmlns="http://www.w3.org/2000/svg" viewBox="0 0 436.41 411.91"><defs><style>.cls-1{fill:#0247dc;}</style></defs><g id="Layer_2" data-name="Layer 2"><g id="Phase_1" data-name="Phase 1"><g id="_2FA" data-name="2FA"><path class="cls-1" d="M211.47,144a7.71,7.71,0,1,0,7.71,7.71A7.71,7.71,0,0,0,211.47,144Z"/><path class="cls-1" d="M240.05,210.05A52.74,52.74,0,1,0,212,307.52a53.17,53.17,0,0,0,11.92-1.36,52.75,52.75,0,0,0,16.17-96.11Zm6.54,66.33a40.74,40.74,0,1,1-43.66-61.33,41.31,41.31,0,0,1,9.21-1.05,40.83,40.83,0,0,1,35.43,20.75L214.73,261.2a2.5,2.5,0,0,1-3.32,0l-19.1-17a3,3,0,0,0-2-.74h-9.62a2.65,2.65,0,0,0-1.89,4.61L209,274.85a6.25,6.25,0,0,0,8.24,0l34.74-28.45A40.48,40.48,0,0,1,246.59,276.38Z"/><path class="cls-1" d="M408.47,0H314a28,28,0,0,0-27.94,27.94v98.2H74.35A36.4,36.4,0,0,0,38,162.5V335.21L1.85,375.52l.64.57A8.82,8.82,0,0,0,0,382.24V391a21,21,0,0,0,21,20.94H405.56A21,21,0,0,0,426.5,391v-8.73a8.87,8.87,0,0,0-7.17-8.7L385,335.21V252.06h23.52a28,28,0,0,0,27.94-27.94V27.94A28,28,0,0,0,408.47,0ZM50,162.5a24.38,24.38,0,0,1,24.35-24.36H286.09v28.24H50Zm0,15.88H286.09v45.74A28,28,0,0,0,314,252.06H373v79.59H50ZM414.5,391a9,9,0,0,1-8.94,8.94H21A9,9,0,0,1,12,391v-5.59H414.5Zm-11.44-17.59H19.89l26.66-29.73H376.4ZM424,224.12a15.5,15.5,0,0,1-15.49,15.48H314a15.5,15.5,0,0,1-15.49-15.48V27.94A15.51,15.51,0,0,1,314,12.45h94.44A15.51,15.51,0,0,1,424,27.94Z"/><path class="cls-1" d="M336.87,31.35h48.31A14.94,14.94,0,0,0,400.1,16.43v-4H387.65v4a2.48,2.48,0,0,1-2.47,2.47H336.87a2.48,2.48,0,0,1-2.47-2.47v-4H322v4A14.94,14.94,0,0,0,336.87,31.35Z"/><path class="cls-1" d="M361.06,219.07a7.28,7.28,0,1,0,7.29,7.28A7.29,7.29,0,0,0,361.06,219.07Z"/><path class="cls-1" d="M389.38,81.05a52.74,52.74,0,1,0-28.09,97.47,53.17,53.17,0,0,0,11.92-1.36,52.75,52.75,0,0,0,16.17-96.11Zm-18.86,84.41a40.74,40.74,0,0,1-18.26-79.41,41.31,41.31,0,0,1,9.21-1,40.83,40.83,0,0,1,35.43,20.75L364.06,132.2a2.5,2.5,0,0,1-3.32,0l-19.1-17a3,3,0,0,0-2-.74h-9.62a2.65,2.65,0,0,0-1.89,4.61l30.11,26.74a6.25,6.25,0,0,0,8.24,0l34.73-28.45A40.77,40.77,0,0,1,370.52,165.46Z"/></g></g></g></svg>