<svg xmlns="http://www.w3.org/2000/svg" viewBox="0 0 337.08 351.66"><defs><style>.cls-1{fill:#0247dc;}</style></defs><g id="Layer_2" data-name="Layer 2"><g id="Phase_2" data-name="Phase 2"><path id="Doctor" class="cls-1" d="M336.91,302c-.5-10.56-2-20.71-2.19-22.06-2.35-20.61-6.75-36.17-13.07-46.27a66.08,66.08,0,0,0-14.6-16.57c-17.6-14.15-56-35.92-71.83-44.72,12.19-18.21,19.52-41.48,19.52-66.81C254.74,47.37,216,0,168.41,0S82.07,47.37,82.07,105.6c0,25.38,7.36,48.69,19.6,66.92C85.7,181.39,47.56,203,30,217.13a66.08,66.08,0,0,0-14.6,16.57C9.1,243.8,4.71,259.36,2.36,280,2.16,281.32.66,291.47.17,302c-.63,13.53,0,27.67,9.79,30,61.79,15,114.74,19.59,156.43,19.59h4.3c41.69,0,94.64-4.59,156.43-19.59C336.87,329.7,337.54,315.56,336.91,302ZM96.35,105.84c0-50.37,32.38-91.35,72.19-91.41s72.19,41,72.19,91.41-32.38,91.35-72.19,91.4S96.35,156.21,96.35,105.84Zm118,89.15-38.11,61.93a14.49,14.49,0,0,1-12.67.07l-37.84-59.64a74.05,74.05,0,0,0,42.7,13.86C185.28,211.21,201,205.26,214.33,195Zm108.1,124.23c-61.08,14.69-113.18,19-153.89,18.84-40.71.16-92.81-4.15-153.89-18.84-1.75-4.78-1.27-21.46,1.17-37.32l0-.27c2.09-18.37,5.92-32.45,11.1-40.71a52.63,52.63,0,0,1,11.59-13.19c9.53-7.66,26.05-18,41.33-27A51.21,51.21,0,0,0,76.17,220v27.51a23.36,23.36,0,1,0,12,1.54V220a40.6,40.6,0,0,1,1.23-10,39.31,39.31,0,0,1,15.76-22.7L155,265.92l1.21.73a26.54,26.54,0,0,0,27.45-.15l1.21-.75,46.14-75a39.56,39.56,0,0,1,11.74,19,40.69,40.69,0,0,1,1.41,10.62V248c-11.6,2.4-19.78,12.1-21.48,26.14l-3.45,24.42a14.45,14.45,0,0,0,3.27,11.39,14.16,14.16,0,0,0,10.73,5s6,.31,7.25-1c2.13-2.11,2.17-7.87.06-10-1.27-1.29-7.25-1-7.25-1a2.18,2.18,0,0,1-1.64-.78,2.46,2.46,0,0,1-.54-1.95l3.46-24.49,0-.13c.58-4.88,3.24-16.21,15.42-16.21h.3c12.09,0,14.74,11.33,15.33,16.21l3.49,24.63a2.44,2.44,0,0,1-.56,2,2.14,2.14,0,0,1-1.64.77s-6-.25-7.23,1c-2.12,2.13-2.08,7.89.06,10,1.28,1.27,7.23,1,7.23,1a14.13,14.13,0,0,0,10.73-5,14.39,14.39,0,0,0,3.29-11.4l-3.47-24.42c-1.69-14-9.86-23.73-21.38-26.14V220.35a52.7,52.7,0,0,0-1.83-13.77,50.91,50.91,0,0,0-3.84-9.83c16.92,9.85,37.09,22.18,48,31a52.83,52.83,0,0,1,11.59,13.19c5.18,8.26,9,22.34,11.09,40.71l0,.27C323.7,297.76,324.17,314.44,322.43,319.22Zm-243-59.9h.12a11.32,11.32,0,1,1-.12,0Z"/></g></g></svg>