<svg xmlns="http://www.w3.org/2000/svg" viewBox="0 0 300.43 302.41"><defs><style>.cls-1{fill:#0247dc;}</style></defs><g id="Layer_2" data-name="Layer 2"><g id="Phase_1" data-name="Phase 1"><g id="Security"><path class="cls-1" d="M299.63,34.52c-.09-1.5-3.22-5.88-7.53-5.7-3.7.16-7.42.35-11.17.55-41.08,2.09-87.62,4.47-127.84-27.88C150-1,148.22.1,147,1.32,116.82,31.51,56.21,29.53,16.11,28.22c-3.65-.11-7.1-.23-10.3-.31H5.68c-2.89,0-4.79,2.42-4.86,3.51C-.55,53.1-.88,86.36,5.32,121.71c7.46,42.59,22.42,77.12,44.46,102.66,37.15,43,82.17,68.72,100.41,78,18.24-9.32,63.26-35,100.4-78C271.7,199.91,306.14,142.73,299.63,34.52ZM240.56,216C207,254.33,166.2,277,150.28,284.92v.1l-.09,0-.1,0v-.1C134.18,277,93.41,254.33,59.82,216,12.37,162,10.35,76.63,13,42.32c32.08,1.93,102.49,1.43,136.91-25.95h.49c34.43,27.38,102.63,27.13,134.7,25.2C287.81,75.87,288,162,240.56,216Z"/><path class="cls-1" d="M213.92,128.24q0-.28,0-.54c0-.14,0-.27,0-.41l-.06-.47c0-.19-.05-.37-.08-.55l-.06-.3c0-.21-.08-.42-.12-.63l0-.1c-.07-.33-.13-.57-.19-.8a18.28,18.28,0,0,0-17.37-13.71h-8.19a2.81,2.81,0,0,1-2.83-2.79V94.8a33.78,33.78,0,0,0-57.34-24.23,32.54,32.54,0,0,0-10,23.52v13.85a2.81,2.81,0,0,1-2.83,2.79h-8.2c-10,0-18,8.43-18,18.79v51.75c0,10.36,8.09,18.79,18,18.79h89.4c9.95,0,18-8.43,18-18.79V129.52c0-.31,0-.61,0-.92ZM128.78,94.09a21.73,21.73,0,0,1,6.75-15.76A22.4,22.4,0,0,1,152.1,72a22.7,22.7,0,0,1,21.58,22.58v13.32a2.81,2.81,0,0,1-2.83,2.79H131.61a2.81,2.81,0,0,1-2.83-2.79Zm73.64,87.18c0,4.11-2.91,7.45-6.49,7.45h-89.4c-3.57,0-6.48-3.34-6.48-7.45V129.52c0-4.11,2.91-7.45,6.48-7.45h81.93a2,2,0,0,1,1.89,1.28,1.93,1.93,0,0,1-.52,2.17l-36.4,33.19a3.09,3.09,0,0,1-4.12,0l-19.78-18a2.54,2.54,0,0,0-1.7-.65h-10a2.34,2.34,0,0,0-2.23,1.5,2.28,2.28,0,0,0,.61,2.53l31.19,28.42a5.84,5.84,0,0,0,7.86,0L199,132.62a2,2,0,0,1,2.19-.36,2,2,0,0,1,1.2,1.82Z"/></g></g></g></svg>